<?xml version="1.0" encoding="UTF-8" standalone="no"?>
<!-- Generator: Adobe Illustrator 19.1.0, SVG Export Plug-In . SVG Version: 6.00 Build 0)  -->

<svg
   version="1.1"
   id="Layer_1"
   x="0px"
   y="0px"
   viewBox="0 0 511.99999 511.99999"
   enable-background="new 0 0 1400 980"
   xml:space="preserve"
   sodipodi:docname="koru.svg"
   width="512"
   height="512"
   inkscape:version="1.2.1 (9c6d41e410, 2022-07-14)"
   inkscape:export-filename="koru.png"
   inkscape:export-xdpi="96"
   inkscape:export-ydpi="96"
   xmlns:inkscape="http://www.inkscape.org/namespaces/inkscape"
   xmlns:sodipodi="http://sodipodi.sourceforge.net/DTD/sodipodi-0.dtd"
   xmlns="http://www.w3.org/2000/svg"
   xmlns:svg="http://www.w3.org/2000/svg"><defs
   id="defs127" /><sodipodi:namedview
   id="namedview125"
   pagecolor="#505050"
   bordercolor="#eeeeee"
   borderopacity="1"
   inkscape:showpageshadow="0"
   inkscape:pageopacity="0"
   inkscape:pagecheckerboard="0"
   inkscape:deskcolor="#505050"
   showgrid="false"
   inkscape:zoom="1.6328077"
   inkscape:cx="252.63232"
   inkscape:cy="233.95284"
   inkscape:window-width="1920"
   inkscape:window-height="1027"
   inkscape:window-x="0"
   inkscape:window-y="0"
   inkscape:window-maximized="1"
   inkscape:current-layer="Layer_1" />




<g
   id="g108"
   transform="matrix(1.7671661,0,0,1.7277125,-989.675,-189.23151)">
	<linearGradient
   id="SVGID_11_"
   gradientUnits="userSpaceOnUse"
   x1="613.67157"
   y1="257.5817"
   x2="846.39301"
   y2="257.5817">
		<stop
   offset="0"
   style="stop-color:#649832"
   id="stop80" />
		<stop
   offset="1"
   style="stop-color:#A0E900"
   id="stop82" />
	</linearGradient>
	<path
   fill="url(#SVGID_11_)"
   d="m 844.5,226.1 c -1.9,-11.4 -5.1,-22.6 -9.5,-33.2 -4.5,-10.6 -10.2,-20.6 -17,-29.7 -1.6,-2.3 -3.5,-4.5 -5.3,-6.7 -1.8,-2.2 -3.7,-4.3 -5.6,-6.3 l -3,-3 -1.5,-1.5 -0.4,-0.4 c -1,-1 -0.5,-0.5 -0.8,-0.8 l -0.7,-0.6 -5.8,-5 c -0.5,-0.4 -0.9,-0.8 -1.5,-1.3 l -1.8,-1.3 -3.7,-2.6 -3.7,-2.6 c -1.2,-0.8 -2.5,-1.5 -3.7,-2.2 -2.5,-1.4 -4.9,-2.9 -7.5,-4.1 l -7.8,-3.4 -1.9,-0.8 c -0.7,-0.2 -1.3,-0.5 -2,-0.7 l -4,-1.3 -4,-1.3 c -1.3,-0.5 -2.7,-0.7 -4.1,-1 -2.7,-0.6 -5.5,-1.3 -8.2,-1.8 -2.8,-0.3 -5.5,-0.7 -8.3,-1 l -2.1,-0.2 -2.1,-0.1 -4.2,-0.1 -4.1,-0.1 c -1.4,0 -2.8,0.1 -4.1,0.2 -2.7,0.2 -5.5,0.3 -8.2,0.6 -2.7,0.4 -5.4,0.9 -8.1,1.3 -2.7,0.3 -5.3,1.2 -7.9,1.9 -2.6,0.7 -5.3,1.3 -7.8,2.4 -2.5,0.9 -5,1.9 -7.6,2.8 -2.4,1.2 -4.8,2.3 -7.2,3.5 -1.2,0.6 -2.4,1.1 -3.6,1.8 l -3.4,2.1 -3.4,2.1 c -1.1,0.7 -2.3,1.4 -3.3,2.2 -2.1,1.6 -4.2,3.2 -6.3,4.8 l -1.6,1.2 c -0.5,0.4 -1,0.9 -1.4,1.3 l -2.9,2.7 -2.8,2.7 -1.4,1.3 c -0.7,0.7 -0.4,0.4 -0.6,0.7 l -0.3,0.3 -0.6,0.7 c -1.6,1.8 -3.1,3.6 -4.7,5.5 -1.6,2.2 -3.2,4.5 -4.8,6.7 -1.5,2.2 -2.6,4.5 -4,6.8 -4.8,9.1 -8.1,18.9 -9.7,28.8 -1.7,9.9 -1.4,19.9 0.2,29.5 l 0.6,3.6 c 0.3,1.2 0.6,2.3 0.9,3.5 l 0.9,3.5 0.5,1.7 0.6,1.7 c 0.8,2.2 1.6,4.5 2.5,6.7 1,2.1 2.1,4.2 3.1,6.4 4.5,8.2 10,15.7 16.4,22 l 0.6,0.6 c 0,0.1 0.6,0.6 0.5,0.5 l 0.3,0.3 1.2,1 2.4,2.1 1.2,1 1.4,1 2.9,2 c 1.9,1.4 3.9,2.4 5.8,3.5 1.9,1.2 3.9,2 5.9,2.9 8.1,3.5 16.6,5.4 24.9,5.8 8.4,0.4 16.6,-0.6 24.2,-2.9 7.6,-2.3 14.6,-5.9 20.7,-10.2 1.5,-1.1 3,-2.3 4.4,-3.4 1.4,-1.2 2.7,-2.5 4,-3.8 l 1,-0.9 0.2,-0.2 c 0.1,0 0.4,-0.4 0.3,-0.4 l 0.4,-0.5 1.7,-2 c 0.6,-0.7 1.1,-1.2 1.7,-2 l 1.6,-2.3 c 4.2,-6 6.9,-12.4 8.5,-18.9 1.6,-6.5 0.9,-8.8 0.6,-11.4 -0.3,-2.7 -1,-5.2 -2,-7.5 -2.1,-4.5 -5.2,-8 -8.8,-10.1 -1.7,-1.1 -3.6,-1.7 -5.3,-2.1 -1.8,-0.4 -3.5,-0.5 -5,-0.5 -1.4,0.1 -2.7,0.3 -3.9,0.6 -9.1,1.9 -15.9,10 -15.9,19.6 0,11.1 9,20.1 20,20.1 7.1,0 8.8,-1.3 12.2,-2.7 -1.5,3.2 -3.3,6.3 -5.5,9.1 l -1.4,1.8 c -0.5,0.6 -1.1,1.2 -1.7,1.9 l -1.8,1.9 -0.4,0.5 c -0.2,0.2 0,0 -0.1,0.1 l -0.2,0.2 -0.9,0.8 c -1.3,1.1 -2.5,2.1 -3.8,3.2 -1.4,1 -2.7,1.9 -4.1,2.9 -5.7,3.6 -12,6.5 -18.8,8.3 -6.8,1.8 -14.1,2.3 -21.3,1.6 -7.2,-0.7 -14.5,-2.7 -21.2,-6 -1.7,-0.8 -3.4,-1.6 -5,-2.7 -1.6,-1 -3.3,-1.9 -4.7,-3.1 l -2.2,-1.7 -1.1,-0.8 -1.1,-1.1 -2.3,-2.2 -1.1,-1.1 -0.3,-0.3 c -0.3,-0.3 0.1,0.1 -0.1,-0.1 l -0.5,-0.6 c -5.4,-5.8 -9.8,-12.5 -13.3,-19.7 -0.8,-1.8 -1.6,-3.7 -2.4,-5.6 -0.6,-1.9 -1.3,-3.9 -1.9,-5.8 l -0.5,-1.5 -0.3,-1.5 -0.6,-3 c -0.2,-1 -0.5,-2 -0.6,-3 l -0.4,-3.1 c -1,-8.1 -0.9,-16.6 0.9,-24.8 1.7,-8.2 4.8,-16.2 9.1,-23.5 1.2,-1.8 2.2,-3.7 3.4,-5.3 1.2,-1.6 2.5,-3.2 3.7,-4.8 1.5,-1.7 3.2,-3.5 4.9,-5.2 l 0.6,-0.7 0.3,-0.3 c 0,0 0.5,-0.5 0,0 l 1.3,-1.1 2.5,-2.1 2.5,-2.2 c 0.4,-0.4 0.8,-0.7 1.3,-1.1 l 1.4,-0.9 c 1.8,-1.3 3.6,-2.5 5.4,-3.8 0.9,-0.7 1.9,-1.2 2.8,-1.7 l 2.9,-1.6 2.9,-1.6 c 1,-0.6 2,-0.9 3,-1.4 2,-0.9 4.1,-1.8 6.1,-2.7 2.1,-0.7 4.2,-1.4 6.4,-2 2.1,-0.8 4.3,-1.2 6.5,-1.6 2.2,-0.4 4.3,-1.1 6.6,-1.3 2.2,-0.3 4.5,-0.5 6.7,-0.8 2.2,-0.1 4.5,-0.1 6.8,-0.2 1.1,0 2.3,-0.1 3.4,0 l 3.4,0.3 3.4,0.2 1.7,0.1 1.7,0.3 c 2.2,0.4 4.5,0.8 6.7,1.1 2.2,0.5 4.4,1.2 6.6,1.7 1.1,0.3 2.2,0.5 3.3,0.9 l 3.2,1.2 3.2,1.2 c 0.5,0.2 1.1,0.4 1.6,0.6 l 1.5,0.8 6.1,3 c 2,1.1 3.8,2.4 5.8,3.6 0.9,0.6 2,1.2 2.8,1.8 l 2.5,2 2.5,1.9 1.3,1 c 0.4,0.3 0.9,0.8 1.4,1.3 l 5.6,5.3 0.7,0.7 c -0.1,-0.1 0.7,0.7 -0.1,-0.1 l 0.3,0.3 1.2,1.3 2.3,2.6 c 1.5,1.8 3,3.6 4.4,5.4 1.3,1.9 2.8,3.7 4.1,5.7 5.2,7.7 9.5,16.1 12.8,24.8 3.2,8.7 5.4,17.9 6.5,27.1 1,9.2 1,18.6 -0.1,27.8 -1.2,9.2 -3.4,18.2 -6.6,26.8 -3.3,8.6 -7.6,16.7 -12.7,24.2 -1.3,1.9 -2.7,3.7 -4,5.5 -1.4,1.7 -2.9,3.6 -4.3,5.1 -1.5,1.6 -2.6,3 -4.6,5 l -2.7,2.8 c -0.2,0.2 0.3,-0.4 0,0 l -0.3,0.3 -0.6,0.6 -1.3,1.2 c -6.9,6.2 -14.3,11.8 -22.1,16.6 -15.6,9.6 -32.8,16 -50.4,19 l 7.6,37.5 c 22,-4.8 43.2,-13.9 62.1,-26.7 9.4,-6.4 18.3,-13.7 26.4,-21.7 8,-7.9 15.8,-17.3 21.8,-27.2 6.2,-10 11.2,-20.6 14.8,-31.7 3.6,-11.1 5.9,-22.6 6.8,-34.2 0.8,-11.7 0.3,-23.4 -1.5,-34.8 z"
   id="path85"
   style="fill:url(#SVGID_11_)" />
	<linearGradient
   id="SVGID_12_"
   gradientUnits="userSpaceOnUse"
   x1="751.96808"
   y1="383.08829"
   x2="751.96808"
   y2="115.5377">
		<stop
   offset="0"
   style="stop-color:#649832"
   id="stop87" />
		<stop
   offset="1"
   style="stop-color:#A0E900"
   id="stop89" />
	</linearGradient>
	<path
   fill="url(#SVGID_12_)"
   d="m 706.4,365.4 c 15.5,-3.8 30.5,-10 43.9,-18.3 8.1,-5 15.8,-10.7 22.9,-17.1 h 0.4 l 2.9,-3 2.6,-2.6 c 1.6,-1.6 2.8,-2.9 3.8,-4 0.4,-0.4 0.8,-0.8 1.2,-1.3 1.1,-1.2 2.1,-2.4 3.1,-3.7 0.5,-0.6 1,-1.2 1.5,-1.8 l 0.2,-0.3 1.2,-1.6 c 1.1,-1.4 2.2,-2.9 3.2,-4.4 5.6,-8.2 10.2,-17 13.8,-26.3 3.5,-9.4 5.9,-19.1 7.2,-29.1 1.2,-10 1.2,-20.1 0.1,-30.1 -1.2,-10 -3.5,-19.9 -7,-29.4 -3.4,-9.2 -8,-18.3 -13.7,-26.8 -1,-1.5 -2,-2.9 -2.9,-4.1 -0.5,-0.6 -0.9,-1.2 -1.4,-1.9 l -0.1,-0.2 -0.1,-0.2 c -1.4,-1.8 -2.9,-3.6 -4.3,-5.3 l 0.2,-0.6 -4.9,-4.6 0.1,0.5 -0.3,-0.7 -6.7,-6.4 c -0.4,-0.4 -1,-1 -1.8,-1.6 l -1.3,-1 -2.5,-1.9 -2.4,-1.9 c -1,-0.8 -2,-1.4 -2.8,-1.8 -0.3,-0.2 -0.5,-0.3 -0.7,-0.5 l -0.3,-0.2 c -0.7,-0.4 -1.4,-0.9 -2.1,-1.3 -1.2,-0.8 -2.5,-1.6 -3.9,-2.4 l -0.3,-0.1 -6.3,-3.1 -1.8,-0.9 -0.3,-0.1 c -0.5,-0.2 -0.9,-0.4 -1.4,-0.6 l -3.7,-1.4 -3,-1.2 c -1.3,-0.5 -2.4,-0.8 -3.3,-1 -0.3,-0.1 -0.5,-0.1 -0.8,-0.2 l -0.4,-0.1 c -0.8,-0.2 -1.6,-0.4 -2.4,-0.6 -1.5,-0.4 -3,-0.8 -4.4,-1.2 l -0.3,-0.1 -7,-1.2 -2.1,-0.4 -5.6,-0.4 -3.3,-0.3 c -0.5,0 -1.1,-0.1 -1.7,-0.1 -0.5,0 -1,0 -1.6,0 -0.3,0 -0.5,0 -0.8,0 h -0.4 c -0.8,0 -1.6,0 -2.5,0.1 -1.5,0 -3,0.1 -4.5,0.1 h -0.3 l -6.8,0.8 c -2.2,0.2 -4.1,0.6 -5.7,1 -0.6,0.1 -1.2,0.3 -1.8,0.4 l -1.5,0.3 c -0.8,0.2 -1.6,0.3 -2.5,0.6 0.7,-0.2 1.5,-0.4 2.2,-0.6 l 1.3,-0.3 c 0.9,-0.2 1.8,-0.5 2.7,-0.7 1.5,-0.4 2.9,-0.8 4.1,-0.9 l 0.4,-0.1 7.8,-1.3 c 1.6,-0.2 3.2,-0.3 4.9,-0.4 0.9,-0.1 1.7,-0.1 2.6,-0.2 0.5,0 1.1,-0.1 1.6,-0.1 0.5,0 1,-0.1 1.5,-0.1 l 4.3,0.1 4.1,0.1 1.6,0.1 9.6,1.2 c 1.6,0.3 3.2,0.7 4.9,1 0.9,0.2 1.7,0.4 2.6,0.6 0.5,0.1 1.1,0.2 1.6,0.4 0.6,0.1 1.2,0.3 1.5,0.4 l 4.1,1.4 c 0,0 5.2,1.7 5.4,1.8 l 1.7,0.7 7.5,3.3 c 1.4,0.7 2.9,1.6 4.5,2.5 0.8,0.4 1.6,0.9 2.3,1.3 0.5,0.3 0.9,0.5 1.4,0.8 0.7,0.4 1.2,0.7 1.6,1 l 3.6,2.5 3.6,2.6 1.8,1.3 c 0.1,0.1 0.7,0.6 0.9,0.8 0,0 6.5,5.7 6.7,5.8 l 0.5,0.5 4.3,4.4 c 1.7,1.9 3.5,3.8 5.2,5.8 0.6,0.8 1.2,1.5 1.8,2.2 1.1,1.3 2.1,2.6 3,3.8 l 0.2,0.2 c 6.5,8.7 11.8,18 15.8,27.6 4.2,10 7.2,20.4 8.9,30.9 1.7,10.7 2.1,21.6 1.3,32.3 -0.9,10.8 -3,21.6 -6.4,31.9 -3.4,10.3 -8.1,20.3 -13.8,29.6 -5.4,8.8 -12.5,17.6 -20.4,25.4 -7.7,7.7 -16.1,14.6 -25,20.6 -14.8,10 -31.5,17.8 -48.9,22.8 z"
   id="path92"
   style="fill:url(#SVGID_12_)" />
	<linearGradient
   id="SVGID_13_"
   gradientUnits="userSpaceOnUse"
   x1="562.96863"
   y1="257.5817"
   x2="795.27551"
   y2="257.5817">
		<stop
   offset="0"
   style="stop-color:#649832"
   id="stop94" />
		<stop
   offset="1"
   style="stop-color:#A0E900"
   id="stop96" />
	</linearGradient>
	<path
   fill="url(#SVGID_13_)"
   d="m 734.5,340 c 2.2,-0.9 4.3,-1.9 6.4,-2.9 l 3.1,-1.6 1.5,-0.8 0.4,-0.2 c 1,-0.6 0.5,-0.3 0.8,-0.5 l 0.7,-0.4 5.4,-3.4 c 0.5,-0.3 0.9,-0.5 1.4,-0.9 l 1.5,-1.1 3,-2.3 2.9,-2.3 c 1,-0.8 1.8,-1.6 2.6,-2.4 1.7,-1.6 3.4,-3.2 5.1,-4.9 l 4.6,-5.3 1.1,-1.3 c 0.4,-0.5 0.7,-1 1,-1.4 l 2,-2.9 2,-2.9 c 0.7,-0.9 1.2,-2 1.8,-3 1.1,-2 2.3,-4 3.4,-6.1 0.9,-2.1 1.9,-4.2 2.8,-6.3 l 0.7,-1.6 0.6,-1.6 1.1,-3.3 1.1,-3.3 c 0.4,-1.1 0.6,-2.2 0.8,-3.3 0.5,-2.2 1.1,-4.4 1.5,-6.7 0.3,-2.2 0.6,-4.5 0.9,-6.7 0.4,-2.2 0.3,-4.5 0.4,-6.7 0.1,-2.2 0.2,-4.5 0,-6.7 -0.1,-2.2 -0.3,-4.5 -0.4,-6.7 -0.3,-2.2 -0.7,-4.4 -1,-6.6 -0.2,-1.1 -0.3,-2.2 -0.6,-3.3 l -0.8,-3.2 -0.8,-3.2 c -0.3,-1.1 -0.5,-2.1 -1,-3.1 -0.8,-2 -1.5,-4.1 -2.3,-6.1 l -0.6,-1.5 c -0.2,-0.5 -0.5,-1 -0.7,-1.5 l -1.4,-2.9 -1.4,-2.9 -0.7,-1.4 c -0.4,-0.8 -0.2,-0.4 -0.4,-0.6 l -0.2,-0.3 -0.4,-0.6 c -1.1,-1.7 -2.1,-3.3 -3.2,-5 -1.4,-1.8 -2.8,-3.6 -4.1,-5.4 -1.4,-1.7 -2.9,-3.2 -4.4,-4.8 -6.1,-6 -13.1,-11 -20.5,-14.6 -7.4,-3.7 -15.5,-5.9 -23.4,-6.9 l -3,-0.4 c -1,-0.1 -2,-0.1 -3,-0.1 l -3,-0.1 h -1.5 l -1.5,0.1 c -2,0.1 -3.9,0.2 -5.9,0.4 -1.9,0.3 -3.9,0.6 -5.8,0.9 -7.6,1.6 -14.9,4.1 -21.4,7.7 l -0.6,0.3 c -0.1,0 -0.6,0.3 -0.5,0.3 l -0.3,0.2 -1.1,0.7 -2.2,1.4 -1.1,0.7 -1.2,0.9 -2.3,1.8 c -1.6,1.1 -2.8,2.5 -4.2,3.7 -1.4,1.2 -2.6,2.6 -3.7,4 -4.7,5.6 -8.3,11.8 -10.6,18.4 -2.3,6.5 -3.6,13.3 -3.5,19.9 0,6.6 1.1,13 3.1,18.9 0.5,1.5 1.1,2.9 1.6,4.3 0.7,1.4 1.3,2.7 2,4.1 l 0.5,1 0.1,0.3 c 0,0.1 0.2,0.4 0.2,0.4 l 0.3,0.5 1.1,1.8 c 0.4,0.6 0.7,1.2 1.2,1.8 l 1.4,1.8 c 3.7,4.8 8.1,8.5 12.9,11.3 4.8,2.8 6.7,2.8 8.9,3.2 2.2,0.4 4.4,0.4 6.4,0.2 4.1,-0.6 7.6,-2.2 10.1,-4.5 1.3,-1.1 2.2,-2.4 3,-3.7 0.8,-1.3 1.2,-2.6 1.6,-3.9 0.3,-1.1 0.4,-2.2 0.5,-3.2 0.7,-7.7 -4.1,-15 -11.7,-17.3 -8.8,-2.7 -18.1,2.3 -20.7,11.1 -1.7,5.6 -1.1,7.3 -0.8,10.3 -2.2,-2 -4.2,-4.1 -5.9,-6.5 l -1.1,-1.6 c -0.4,-0.5 -0.7,-1.2 -1.1,-1.8 l -1.1,-1.9 -0.3,-0.5 c -0.1,-0.2 0,0 0,-0.1 l -0.1,-0.2 -0.4,-0.9 c -0.5,-1.3 -1.1,-2.5 -1.7,-3.8 -0.4,-1.3 -0.9,-2.6 -1.3,-4 -1.5,-5.4 -2.3,-11.1 -2,-16.9 0.2,-5.8 1.6,-11.7 3.9,-17.3 2.3,-5.6 5.6,-10.8 9.8,-15.4 1.1,-1.1 2.1,-2.3 3.3,-3.3 1.2,-1 2.3,-2.2 3.6,-2.9 l 1.8,-1.3 0.9,-0.7 1.1,-0.6 2.3,-1.3 1.1,-0.6 0.3,-0.2 c 0.3,-0.2 -0.1,0 0.1,0 l 0.6,-0.2 c 2.1,-1 4.3,-1.9 6.6,-2.7 -1.1,1 -2.1,2 -3,3 -2.9,3.3 -5.2,7.1 -6.8,11 -1.5,3.9 -2.4,8 -2.6,12 0,1 0,2 0,3 0.1,1 0.2,2 0.2,2.9 l 0.1,0.7 v 0.2 c 0,0 0,0.3 0,0.3 l 0.1,0.3 0.3,1.3 c 0.1,0.5 0.1,0.9 0.3,1.4 l 0.4,1.4 c 1.1,3.7 2.9,7 5,9.8 2.2,2.8 3.3,3.3 4.6,4 1.2,0.8 2.5,1.3 3.8,1.6 2.6,0.6 5,0.5 7.1,-0.3 1,-0.4 1.9,-0.9 2.7,-1.5 0.8,-0.6 1.4,-1.3 1.9,-1.9 0.4,-0.6 0.8,-1.2 1.1,-1.8 2.2,-4.4 1.1,-9.9 -2.9,-13.1 -4.6,-3.7 -11.3,-2.9 -14.9,1.7 -2.3,2.9 -2.4,4.1 -2.9,6 -0.8,-1.7 -1.5,-3.5 -2,-5.3 l -0.3,-1.2 c -0.1,-0.4 -0.1,-0.9 -0.2,-1.3 l -0.2,-1.4 v -0.3 c 0,-0.1 0,0 0,-0.1 v -0.2 -0.7 c 0,-0.9 -0.1,-1.8 -0.1,-2.6 0.1,-0.9 0.1,-1.8 0.2,-2.7 0.4,-3.6 1.3,-7.1 2.8,-10.5 1.5,-3.4 3.7,-6.6 6.3,-9.4 2.7,-2.8 5.9,-5.1 9.5,-6.9 0.9,-0.4 1.8,-0.9 2.8,-1.2 0.9,-0.3 1.9,-0.7 2.8,-0.9 l 1.4,-0.3 0.7,-0.2 0.8,-0.1 1.7,-0.2 0.8,-0.1 h 0.2 c 0.2,0 0,0 0.1,0 h 0.4 c 1.2,-0.1 2.4,-0.1 3.6,-0.1 l 2,0.2 c 0.8,0.1 1.7,0.1 2.5,0.2 l 2.5,0.5 c 6.7,1.2 13.4,3.3 19.4,6.7 6.1,3.3 11.7,7.7 16.4,12.9 1.1,1.3 2.4,2.6 3.4,4 1,1.4 1.9,2.7 2.9,4.1 1,1.6 2,3.4 2.9,5.1 l 0.4,0.6 0.2,0.3 c 0,0 0.3,0.5 0,0 l 0.5,1.3 1.1,2.5 1.1,2.5 c 0.2,0.4 0.4,0.8 0.5,1.3 l 0.4,1.3 c 0.6,1.7 1.1,3.5 1.7,5.2 0.3,0.9 0.5,1.8 0.7,2.7 l 0.6,2.7 0.6,2.7 c 0.2,0.9 0.2,1.8 0.4,2.7 0.2,1.8 0.4,3.7 0.6,5.5 0,1.8 0.1,3.7 0.1,5.6 0.1,1.9 -0.1,3.7 -0.3,5.6 -0.2,1.8 -0.2,3.7 -0.6,5.5 -0.3,1.8 -0.7,3.7 -1,5.5 -0.4,1.8 -1,3.6 -1.5,5.4 -0.3,0.9 -0.4,1.8 -0.8,2.7 l -1,2.6 -1,2.6 -0.5,1.3 -0.6,1.3 c -0.8,1.7 -1.7,3.3 -2.5,5 -0.9,1.6 -2,3.2 -3,4.8 -0.5,0.8 -0.9,1.6 -1.5,2.4 l -1.7,2.2 -1.7,2.2 c -0.3,0.4 -0.6,0.8 -0.9,1.1 l -1,1 -3.9,4.1 c -1.4,1.3 -2.8,2.5 -4.2,3.7 -0.7,0.6 -1.4,1.3 -2.1,1.8 l -2.2,1.5 -2.1,1.5 -1.1,0.8 c -0.4,0.3 -0.9,0.5 -1.3,0.8 l -5.6,3.2 -0.7,0.4 c 0.1,-0.1 -0.7,0.4 0.1,-0.1 l -0.3,0.2 -1.3,0.6 -2.6,1.2 c -1.8,0.7 -3.6,1.5 -5.4,2.2 -1.8,0.6 -3.6,1.4 -5.5,1.9 -7.4,2.3 -15,3.7 -22.7,4.1 -7.7,0.4 -15.5,0 -23,-1.4 -7.6,-1.4 -15,-3.7 -22,-6.8 -7,-3.1 -13.6,-7.1 -19.6,-11.7 -6,-4.7 -11.4,-10 -16.1,-15.9 -1.2,-1.5 -2.3,-3 -3.4,-4.5 -1,-1.6 -2.2,-3.2 -3,-4.6 -0.9,-1.5 -1.7,-2.8 -2.8,-4.9 l -1.5,-2.8 c -0.1,-0.2 0.2,0.4 0,0 l -0.2,-0.3 -0.3,-0.7 -0.6,-1.3 c -3.3,-7 -5.9,-14.2 -7.8,-21.5 -3.8,-14.7 -4.8,-29.9 -2.9,-44.5 l -31.6,-3.1 c -1.5,18.6 0.6,37.6 6.2,55.7 2.8,9 6.4,17.8 10.9,26.1 4.3,8.2 9.9,16.7 16.3,23.9 6.4,7.3 13.7,13.8 21.6,19.4 7.9,5.5 16.5,10.1 25.5,13.7 9,3.5 18.4,5.9 27.8,7.2 9.5,1.3 19.1,1.4 28.6,0.4 9.5,-1 18.8,-3.2 27.6,-6.3 1.8,-1.4 3.9,-2.4 6.1,-3.2 z"
   id="path99"
   style="fill:url(#SVGID_13_)" />
	<linearGradient
   id="SVGID_14_"
   gradientUnits="userSpaceOnUse"
   x1="674.46808"
   y1="330.70441"
   x2="674.46808"
   y2="204.3692">
		<stop
   offset="0"
   style="stop-color:#649832"
   id="stop101" />
		<stop
   offset="1"
   style="stop-color:#A0E900"
   id="stop103" />
	</linearGradient>
	<path
   fill="url(#SVGID_14_)"
   d="m 698.5,330.7 c -5,0 -9.9,-0.3 -14.8,-1 -8.7,-1.2 -17.4,-3.5 -25.6,-6.6 -8.2,-3.3 -16.1,-7.5 -23.4,-12.6 -7.2,-5.1 -13.9,-11.1 -19.8,-17.8 -5.5,-6.2 -10.8,-14 -15,-21.9 -4.2,-7.9 -7.6,-16.1 -10.2,-24.5 -4.2,-13.4 -6.3,-27.7 -6.2,-41.9 l 11.5,1.1 c -0.6,12.8 0.8,25.8 4,38.1 1.8,7 4.3,14 7.3,20.7 l -0.2,0.4 2.8,5 1.4,2.6 c 0.9,1.7 1.6,3 2.3,4.1 0.2,0.4 0.5,0.8 0.7,1.2 0.7,1.2 1.5,2.3 2.2,3.5 0.4,0.5 0.7,1 1,1.6 l 0.2,0.3 1,1.4 c 0.9,1.2 1.8,2.5 2.8,3.7 5.2,6.5 11.2,12.4 17.8,17.5 6.7,5.1 14,9.5 21.7,12.9 7.7,3.4 15.9,5.9 24.2,7.5 6.4,1.1 12.8,1.7 19.3,1.7 2,0 4.1,-0.1 6.1,-0.2 8.3,-0.5 16.7,-2 24.9,-4.5 1.5,-0.4 2.9,-0.9 4.1,-1.3 0.6,-0.2 1.2,-0.4 1.8,-0.6 l 0.2,-0.1 0.2,-0.1 c 1.8,-0.7 3.6,-1.4 5.3,-2.2 l 0.5,-0.2 2.1,-1 h 0.5 l 2.3,-1.3 -0.6,0.1 0.7,-0.2 6.7,-3.8 c 0.5,-0.3 1.2,-0.6 1.9,-1.2 l 1.1,-0.8 2.1,-1.5 2,-1.4 -2.2,1.7 -2.9,2.2 -1.4,1.1 -0.1,0.1 c -0.2,0.1 -6.5,4.1 -6.5,4.1 l -0.7,0.4 -4.5,2.3 c -1.8,0.9 -3.8,1.8 -5.7,2.6 -0.7,0.3 -1.5,0.6 -2.2,0.9 -1.3,0.5 -2.5,1 -3.7,1.4 l -0.2,0.1 c -8.4,3 -16.9,4.9 -25.3,5.8 -3.8,0.4 -7.7,0.6 -11.5,0.6 z"
   id="path106"
   style="fill:url(#SVGID_14_)" />
</g>
<linearGradient
   id="SVGID_15_"
   gradientUnits="userSpaceOnUse"
   x1="1134.9005"
   y1="114.6787"
   x2="1134.9005"
   y2="400.48459"
   gradientTransform="translate(-563.43034,-113)">
	<stop
   offset="0"
   style="stop-color:#649832"
   id="stop110" />
	<stop
   offset="1"
   style="stop-color:#A0E900"
   id="stop112" />
</linearGradient>

<linearGradient
   id="SVGID_16_"
   gradientUnits="userSpaceOnUse"
   x1="1134.9005"
   y1="394.0065"
   x2="1134.9005"
   y2="121.1568"
   gradientTransform="translate(-563.43034,-113)">
	<stop
   offset="0"
   style="stop-color:#649832"
   id="stop117" />
	<stop
   offset="1"
   style="stop-color:#A0E900"
   id="stop119" />
</linearGradient>

</svg>
